HIERARCHY
ROOT Hips
{
	OFFSET 0.00000 0.00000 0.00000
	CHANNELS 6 Xposition Yposition Zposition Zrotation Yrotation Xrotation 
	JOINT LHipJoint
	{
		OFFSET 0 0 0
		CHANNELS 3 Zrotation Yrotation Xrotation
		JOINT LeftUpLeg
		{
			OFFSET 3.13874 -1.57224 1.49786
			CHANNELS 3 Zrotation Yrotation Xrotation
			JOINT LeftLeg
			{
				OFFSET 2.10955 -5.79594 0.00000
				CHANNELS 3 Zrotation Yrotation Xrotation
				JOINT LeftFoot
				{
					OFFSET 2.41843 -6.64458 0.00000
					CHANNELS 3 Zrotation Yrotation Xrotation
					JOINT LeftToeBase
					{
						OFFSET 0.04713 -0.12948 1.66229
						CHANNELS 3 Zrotation Yrotation Xrotation
						End Site
						{
							OFFSET 0.00000 -0.00000 0.85167
						}
					}
				}
			}
		}
	}
	JOINT RHipJoint
	{
		OFFSET 0 0 0
		CHANNELS 3 Zrotation Yrotation Xrotation
		JOINT RightUpLeg
		{
			OFFSET -3.13988 -1.57224 1.49786
			CHANNELS 3 Zrotation Yrotation Xrotation
			JOINT RightLeg
			{
				OFFSET -2.15006 -5.90725 0.00000
				CHANNELS 3 Zrotation Yrotation Xrotation
				JOINT RightFoot
				{
					OFFSET -2.34496 -6.44273 0.00000
					CHANNELS 3 Zrotation Yrotation Xrotation
					JOINT RightToeBase
					{
						OFFSET -0.08699 -0.23900 1.55223
						CHANNELS 3 Zrotation Yrotation Xrotation
						End Site
						{
							OFFSET -0.00000 -0.00000 0.80281
						}
					}
				}
			}
		}
	}
	JOINT LowerBack
	{
		OFFSET 0 0 0
		CHANNELS 3 Zrotation Yrotation Xrotation
		JOINT Spine
		{
			OFFSET 0.01292 1.96517 -0.16495
			CHANNELS 3 Zrotation Yrotation Xrotation
			JOINT Spine1
			{
				OFFSET 0.02122 1.88666 0.19706
				CHANNELS 3 Zrotation Yrotation Xrotation
				JOINT Neck
				{
					OFFSET 0 0 0
					CHANNELS 3 Zrotation Yrotation Xrotation
					JOINT Neck1
					{
						OFFSET -0.01683 1.81591 0.07903
						CHANNELS 3 Zrotation Yrotation Xrotation
						JOINT Head
						{
							OFFSET 0.00815 1.74013 -0.47700
							CHANNELS 3 Zrotation Yrotation Xrotation
							End Site
							{
								OFFSET -0.00204 1.83225 -0.16933
							}
						}
					}
				}
				JOINT LeftShoulder
				{
					OFFSET 0 0 0
					CHANNELS 3 Zrotation Yrotation Xrotation
					JOINT LeftArm
					{
						OFFSET 3.38482 1.41533 0.19802
						CHANNELS 3 Zrotation Yrotation Xrotation
						JOINT LeftForeArm
						{
							OFFSET 4.32712 -0.00000 0.00000
							CHANNELS 3 Zrotation Yrotation Xrotation
							JOINT LeftHand
							{
								OFFSET 3.28587 -0.00000 -0.00000
								CHANNELS 3 Zrotation Yrotation Xrotation
								JOINT LeftFingerBase
								{
									OFFSET 0 0 0
									CHANNELS 3 Zrotation Yrotation Xrotation
									JOINT LeftHandIndex1
									{
										OFFSET 0.43316 -0.00000 -0.00000
										CHANNELS 3 Zrotation Yrotation Xrotation
										End Site
										{
											OFFSET 0.34922 -0.00000 -0.00000
										}
									}
								}
								JOINT LThumb
								{
									OFFSET 0 0 0
									CHANNELS 3 Zrotation Yrotation Xrotation
									End Site
									{
										OFFSET 0.35456 -0.00000 0.35456
									}
								}
							}
						}
					}
				}
				JOINT RightShoulder
				{
					OFFSET 0 0 0
					CHANNELS 3 Zrotation Yrotation Xrotation
					JOINT RightArm
					{
						OFFSET -3.09725 1.62858 -0.14144
						CHANNELS 3 Zrotation Yrotation Xrotation
						JOINT RightForeArm
						{
							OFFSET -4.29104 -0.00000 0.00000
							CHANNELS 3 Zrotation Yrotation Xrotation
							JOINT RightHand
							{
								OFFSET -3.22720 -0.00000 -0.00000
								CHANNELS 3 Zrotation Yrotation Xrotation
								JOINT RightFingerBase
								{
									OFFSET 0 0 0
									CHANNELS 3 Zrotation Yrotation Xrotation
									JOINT RightHandIndex1
									{
										OFFSET -0.54362 -0.00000 -0.00000
										CHANNELS 3 Zrotation Yrotation Xrotation
										End Site
										{
											OFFSET -0.43828 -0.00000 -0.00000
										}
									}
								}
								JOINT RThumb
								{
									OFFSET 0 0 0
									CHANNELS 3 Zrotation Yrotation Xrotation
									End Site
									{
										OFFSET -0.44497 -0.00000 0.44497
									}
								}
							}
						}
					}
				}
			}
		}
	}
}
MOTION
Frames: 16
Frame Time: 0.0952381
0.00 0.00 0.00 0 0 0 0 0 0 -21 0 0 0 0 0 0 0 0 0 0 0 0 0 0 21 0 0 0 0 0 0 0 0 0 0 0 0 0 0 0 0 0 0 0 0 0 0 -16 0 0 21 0 0 11 0 0 0 -8 0 0 0 0 0 0 0 0 0 0 0 0 0 0 0 0 0 0 0 0 8 0 0 0 0 0 0 0 0 0 0 0 0 0 0 0 0 0
0.00 0.00 0.00 -114.7030 -84.0663 128.0040 0.0000 0.0000 0.0000 -32.7196 -40.6279 20.2431 0.0275 -1.0713 -2.9449 7.7536 15.1210 -58.1561 8.3551 -16.3743 -53.8318 0.0000 0.0000 0.0000 27.8727 33.6051 0.9218 -0.1999 2.8793 -7.9429 1.7261 -25.5506 -22.9803 -0.4458 4.2837 -11.8761 3.0940 0.8854 7.3208 2.8921 1.7184 -9.5988 1.1793 0.5582 -14.7366 -10.9872 -8.5137 -12.1671 7.2350 -11.7504 22.3381 2.7892 -5.7627 10.2171 0.0000 0.0000 0.0000 -86.0916 10.1838 39.4797 19.6451 -30.2123 -5.3516 -0.0000 -0.0000 1.7409 31.3904 30.1847 17.0554 -7.1250 0.0000 -0.0000 0.3051 64.2494 0.1423 0.0000 0.0000 0.0000 67.5315 -9.1757 49.9032 -21.6432 32.5714 -6.3927 0.0000 -0.0000 -13.9398 -17.8946 -26.1975 8.1125 7.1250 -0.0000 -0.0000 13.2245 -56.8273 -3.8799
0.00 0.00 0.00 -144.4980 -83.0877 153.5960 0.0000 0.0000 0.0000 -40.4502 -33.7508 20.9992 0.0739 -1.7537 -4.8254 5.6403 16.1653 -51.7116 8.1880 -16.2558 -53.2372 0.0000 0.0000 0.0000 17.8717 23.9414 -14.3126 -0.3878 -3.9990 11.0738 0.3863 -13.6905 -13.8347 -3.1511 10.9358 -32.0637 -0.3200 0.7658 7.2055 2.3905 1.0314 -9.1418 2.6554 0.5801 -14.1579 -8.7465 -8.3352 -12.6838 4.0781 -11.5342 25.6180 1.2959 -5.8588 11.1401 0.0000 0.0000 0.0000 -86.3874 12.5333 29.3143 16.2102 -25.8048 -3.7370 -0.0000 -0.0000 5.7484 31.2289 33.6912 18.5894 -7.1250 0.0000 -0.0000 -1.8348 67.9138 -1.0104 0.0000 0.0000 0.0000 68.5230 -14.6926 42.4696 -17.6021 27.6447 -4.3631 0.0000 -0.0000 -13.0943 -14.7490 -20.5077 5.2694 7.1250 -0.0000 -0.0000 13.7627 -50.6142 -1.9357
0.00 0.00 0.00 -148.0620 -84.8247 156.4140 0.0000 0.0000 0.0000 -39.8536 -27.7791 17.7499 0.0673 -1.6736 -4.6045 3.6518 15.6800 -43.8628 9.3173 -17.0076 -57.1811 0.0000 0.0000 0.0000 18.6352 18.4814 -23.0774 -1.7590 -8.3448 23.7665 -0.8368 -15.9426 -29.4001 -0.3029 3.5385 -9.7817 -1.8818 0.9024 7.9378 2.0387 0.9826 -8.9448 3.1487 0.7119 -14.4179 -5.7504 -5.2998 -13.3868 1.8552 -7.8202 31.2454 0.4431 -4.2576 12.9642 0.0000 -0.0000 0.0000 -85.9489 13.2713 28.9258 15.9218 -25.4145 -3.6123 -0.0000 -0.0000 6.1107 30.3716 31.5485 17.0467 -7.1250 0.0000 -0.0000 -1.7099 65.4088 -0.8434 0.0000 -0.0000 0.0000 69.5041 -15.7451 41.6793 -17.5372 27.5605 -4.3330 0.0000 -0.0000 -13.0669 -15.1595 -21.3219 5.6263 7.1250 -0.0000 -0.0000 13.6939 -51.4863 -2.2227
0.00 0.00 0.00 -109.3040 -87.4291 118.5350 0.0000 0.0000 0.0000 -39.2479 -24.9646 16.7739 0.0398 -1.2872 -3.5395 3.0015 13.5717 -39.5788 10.1863 -17.5133 -60.1093 0.0000 0.0000 0.0000 18.9220 27.7046 -22.6220 -0.0905 -1.9402 5.3403 -1.1896 -20.1357 -35.9145 -0.0401 1.2924 -3.5536 -1.6265 0.7033 7.8160 2.1395 0.7982 -8.2813 3.1368 0.6010 -13.5305 -1.6965 0.1273 -9.6742 1.1831 -3.4995 46.7429 -0.1261 -2.5975 19.9516 -0.0000 -0.0000 0.0000 -86.3323 12.4496 27.4500 14.9759 -24.1126 -3.2161 -0.0000 -0.0000 7.3893 30.2505 31.0617 16.7469 -7.1250 0.0000 -0.0000 -1.6067 64.8601 -0.7720 -0.0000 -0.0000 0.0000 70.2697 -15.4029 42.2298 -16.8627 26.6764 -4.0255 0.0000 -0.0000 -12.4513 -15.9465 -21.8220 6.0629 7.1250 -0.0000 -0.0000 13.1329 -52.1154 -2.3336
0.00 0.00 0.00 -30.2056 -81.8270 46.2024 0.0000 0.0000 0.0000 -28.4882 -13.0181 10.1657 0.2472 3.1995 8.8348 1.7212 4.4676 -26.7236 12.1742 -18.4633 -66.5400 0.0000 0.0000 0.0000 27.9679 27.4497 -16.5513 -0.0005 0.1392 -0.3824 -0.4372 -21.0496 -32.6062 -0.8972 -6.0368 16.8912 3.8293 0.5058 7.1858 4.1099 1.4222 -7.6394 2.1046 0.4836 -12.3649 -0.4908 1.4381 -5.7121 -0.0310 -3.6894 54.0861 -1.3190 -2.8201 25.4132 -0.0000 0.0000 0.0000 -86.0242 9.0152 42.1322 14.2278 -23.0595 -2.9168 -0.0000 -0.0000 5.2936 30.2070 29.8947 16.1807 -7.1250 0.0000 -0.0000 -1.0826 63.6097 -0.4886 -0.0000 0.0000 0.0000 68.5575 -7.8216 47.6386 -17.0974 26.9860 -4.1315 0.0000 -0.0000 -9.9608 -17.1035 -23.3202 6.9451 7.1250 -0.0000 -0.0000 12.6303 -53.8130 -2.7708
0.00 0.00 0.00 -30.5373 -81.3592 46.5998 0.0000 0.0000 0.0000 -21.4007 -2.6856 -3.1724 2.0290 8.9261 25.5646 0.2901 1.8996 -11.0513 13.3504 -18.9050 -70.2103 0.0000 0.0000 0.0000 31.2253 25.8040 -11.6775 -0.0267 1.0543 -2.8983 -0.4850 -20.4926 -32.2251 -0.5877 -4.9085 13.6476 4.7093 0.4755 7.5390 4.1738 1.5234 -7.5377 1.6631 0.4557 -12.4543 -0.6718 1.3575 -6.0862 0.4055 -3.9862 54.0709 -1.0870 -2.9049 25.6293 0.0000 -0.0000 0.0000 -86.0566 4.4320 46.4981 15.0491 -24.2145 -3.2461 -0.0000 -0.0000 4.4532 31.9137 30.0975 17.3439 -7.1250 0.0000 -0.0000 1.0274 64.3035 0.4804 0.0000 -0.0000 0.0000 68.1894 -4.4022 47.5296 -18.3478 28.6002 -4.7145 0.0000 -0.0000 -10.9554 -18.8272 -22.6779 7.4889 7.1250 -0.0000 -0.0000 10.6226 -53.4880 -2.2371
0.00 0.00 0.00 -37.7976 -80.5752 53.2671 0.0000 0.0000 0.0000 -16.2641 -2.1723 -16.8991 6.3692 14.7768 46.4460 0.3023 7.4424 -15.6770 12.8115 -18.7130 -68.5390 0.0000 0.0000 0.0000 35.5397 23.1087 -7.4914 -0.0542 1.5017 -4.1304 -0.6354 -19.1133 -31.5498 -0.2727 -3.3589 9.2797 6.6436 0.4558 8.4402 4.2075 1.8399 -7.4637 0.5653 0.4229 -12.8938 -0.6649 1.3575 -6.0242 0.6198 -3.9881 53.8255 -0.9395 -2.8812 25.2969 0.0000 -0.0000 0.0000 -86.4136 -1.1398 50.7052 18.3464 -28.5984 -4.7139 -0.0000 -0.0000 1.4928 31.4478 28.9556 16.4924 -7.1250 0.0000 -0.0000 0.8958 62.9434 0.3903 0.0000 -0.0000 0.0000 67.6028 0.7413 50.0702 -18.6410 28.9702 -4.8557 0.0000 -0.0000 -12.6972 -20.9199 -23.2520 8.5816 7.1250 -0.0000 -0.0000 8.7224 -54.4708 -2.0414
0.00 0.00 0.00 -64.8683 -81.4243 79.8802 0.0000 0.0000 0.0000 -8.9995 -13.8189 -37.7539 3.3044 11.1722 32.8629 1.3766 7.7216 -26.1668 12.1614 -18.4580 -66.4995 0.0000 0.0000 0.0000 40.5271 17.1893 -2.8613 -0.0096 0.6331 -1.7398 -1.1133 -13.5546 -28.9605 -0.0012 0.2280 -0.6263 7.3419 0.7953 9.0964 3.9889 2.4404 -7.3520 -0.1871 0.6249 -13.1180 -1.1343 2.0991 -7.4440 -0.3283 -1.5473 52.8092 -0.8909 -2.1575 24.6376 0.0000 0.0000 0.0000 -87.3736 0.2098 53.2642 28.3685 -39.4533 -10.3570 -0.0000 -0.0000 0.4131 27.4462 26.2016 12.9157 -7.1250 0.0000 -0.0000 -2.8310 58.9662 -0.9668 0.0000 0.0000 0.0000 69.6636 1.9013 55.8486 -21.6875 32.6221 -6.4166 0.0000 -0.0000 -15.2310 -20.6482 -23.9223 8.6879 7.1250 -0.0000 -0.0000 9.2767 -55.1034 -2.3161
0.00 0.00 0.00 -78.0864 -80.2607 92.5336 0.0000 0.0000 0.0000 2.4357 -27.9815 -35.4858 0.5032 4.5475 12.6222 0.0904 17.0476 -24.9665 10.7956 -17.8336 -62.1161 0.0000 0.0000 0.0000 43.2402 16.7355 2.6926 -0.0258 1.0369 -2.8504 -1.4268 -13.0090 -30.5667 -0.0052 0.4656 -1.2794 8.1288 0.9330 8.8293 4.1762 2.7153 -7.4249 -0.4610 0.6855 -13.0113 -1.2817 2.6285 -8.6887 -0.7908 -0.1124 52.5209 -0.8484 -1.7067 24.8705 0.0000 -0.0000 0.0000 -88.2660 2.0100 48.1471 21.6378 -32.5653 -6.3898 -0.0000 -0.0000 2.8097 29.3840 26.7589 14.2265 -7.1250 0.0000 -0.0000 -0.7950 60.0353 -0.2917 0.0000 -0.0000 0.0000 69.4111 -3.1224 59.1781 -20.9014 31.7131 -5.9980 0.0000 -0.0000 -11.8604 -19.5785 -23.6960 8.1345 7.1250 -0.0000 -0.0000 10.2834 -54.6622 -2.4604
0.00 0.00 0.00 -108.9480 -80.1500 122.2950 0.0000 0.0000 0.0000 -11.3452 -24.4841 -22.3623 0.8739 5.9602 16.6691 0.7381 10.5032 -23.2363 10.1899 -17.5152 -60.1210 0.0000 0.0000 0.0000 34.2407 2.6547 3.5480 -0.7429 -5.5058 15.3571 -0.5092 -4.2431 -15.7023 -1.5163 7.7762 -22.0362 4.9129 1.4398 7.8217 2.8302 2.7607 -8.2584 -0.1418 0.9157 -13.3737 -1.4072 3.9364 -10.4380 -0.9767 2.5210 52.4406 -0.4106 -0.8846 25.6408 0.0000 -0.0000 0.0000 -84.0956 8.6654 17.9525 11.8847 -19.6316 -2.0634 -0.0000 -0.0000 13.9574 30.6375 30.9744 16.9524 -7.1250 0.0000 -0.0000 -1.0563 64.8779 -0.5080 0.0000 -0.0000 0.0000 69.9086 -11.7398 48.5914 -13.1263 21.4721 -2.4993 0.0000 -0.0000 -8.6486 -16.7901 -27.6988 7.9837 7.1250 -0.0000 -0.0000 15.2382 -58.0636 -4.9460
0.00 0.00 0.00 -126.7500 -81.5534 139.3340 0.0000 0.0000 0.0000 -18.3657 -22.8482 -15.8211 0.6274 5.0684 14.1037 0.9502 10.3850 -24.9140 10.4867 -17.6746 -61.1031 0.0000 0.0000 0.0000 28.1726 0.2435 -7.4269 -3.7574 -11.8305 35.1348 0.1201 -10.0182 -12.0859 -0.8895 6.0117 -16.8183 1.9094 1.6270 8.9837 2.3853 2.6243 -7.9921 1.0379 1.1292 -13.8868 -1.4418 3.6762 -10.5281 -0.9496 2.0314 52.2702 -0.4912 -1.0628 25.4673 0.0000 0.0000 0.0000 -83.5569 5.7406 27.4349 13.6322 -22.2065 -2.6875 -0.0000 -0.0000 7.4335 30.5786 29.4698 16.2091 -7.1250 0.0000 -0.0000 -0.4190 63.2584 -0.1856 0.0000 0.0000 0.0000 70.1152 -4.3317 53.5516 -14.5464 23.5104 -3.0427 0.0000 -0.0000 -11.9565 -21.9170 -26.0011 10.0031 7.1250 -0.0000 -0.0000 8.8626 -57.4933 -2.7257
0.00 0.00 0.00 -138.1820 -80.6818 150.3880 0.0000 0.0000 0.0000 -21.7261 -20.7133 -11.5657 0.5892 4.9145 13.6650 1.3324 9.4613 -27.0859 10.6775 -17.7736 -61.7298 0.0000 0.0000 0.0000 27.9977 2.5484 -17.8949 -4.5602 -12.8708 38.8866 -1.6095 -13.7207 -32.3009 -0.0010 0.2033 -0.5585 1.2947 1.6186 9.6189 2.4242 2.5505 -7.6493 1.4244 1.1638 -13.9101 -1.2015 3.6880 -10.6329 -0.9707 1.9000 52.0794 -0.5792 -1.0693 25.2912 -0.0000 -0.0000 0.0000 -84.0432 -0.6438 33.7871 14.3381 -23.2160 -2.9601 -0.0000 -0.0000 8.4750 32.1985 30.1068 17.5295 -7.1250 0.0000 -0.0000 1.3979 64.3944 0.6565 -0.0000 -0.0000 0.0000 71.2622 3.2070 61.4157 -20.3819 31.0997 -5.7273 0.0000 -0.0000 -16.5776 -22.9800 -24.6779 10.0403 7.1250 -0.0000 -0.0000 7.1405 -56.3606 -1.9963
0.00 0.00 0.00 -108.4760 -81.5529 121.0890 0.0000 0.0000 0.0000 -0.1073 -33.7929 -29.1406 0.1354 2.3715 6.5334 1.6777 17.0423 -35.5685 9.7860 -17.2878 -58.7707 0.0000 0.0000 0.0000 40.2755 14.3633 -0.8344 -0.0000 -0.0245 0.0674 -1.7903 -11.3638 -31.5474 -0.0043 -0.4250 1.1676 8.4635 1.1371 9.8096 4.3811 3.2083 -8.1372 -0.5083 0.8147 -14.4502 -3.9809 1.6541 -9.2084 -2.6255 0.1361 51.6919 -1.3212 -2.4169 24.1796 0.0000 -0.0000 0.0000 -88.7065 3.8642 51.0156 26.9575 -38.1387 -9.4729 -0.0000 -0.0000 3.2258 26.5150 27.1007 12.8047 -7.1250 0.0000 -0.0000 -4.2626 59.6943 -1.5308 0.0000 -0.0000 0.0000 69.7340 2.0326 59.5028 -23.7127 34.8589 -7.5417 0.0000 -0.0000 -16.8537 -23.6317 -24.6723 10.3507 7.1250 -0.0000 -0.0000 6.4415 -56.4936 -1.8204
0.00 0.00 0.00 -111.2490 -80.7763 123.9490 0.0000 0.0000 0.0000 9.8063 -47.8831 -27.7992 0.0070 0.5414 1.4877 6.5987 12.3248 -53.2167 8.2182 -16.2774 -53.3449 0.0000 0.0000 0.0000 41.1012 14.0676 0.4377 -0.0002 0.1018 -0.2797 -1.9374 -10.4278 -31.7718 -0.0253 -1.0260 2.8203 8.3711 1.3175 9.4452 4.5573 3.4058 -8.2620 -0.2898 0.9216 -14.3717 -3.3778 1.7511 -9.1526 -3.6460 0.6910 51.3574 -1.8857 -2.1929 23.8223 0.0000 0.0000 0.0000 -88.5692 4.5337 49.3672 26.3902 -37.5914 -9.1246 -0.0000 -0.0000 2.6143 26.4018 27.6397 12.9694 -7.1250 0.0000 -0.0000 -4.6333 60.2331 -1.7238 0.0000 0.0000 0.0000 69.5659 1.3107 62.1650 -23.5921 34.7299 -7.4729 0.0000 -0.0000 -14.9840 -22.9347 -24.2045 9.8418 7.1250 -0.0000 -0.0000 6.9975 -55.8599 -1.8711
0.00 0.00 0.00 -119.0150 -76.5173 130.9640 0.0000 0.0000 0.0000 -0.9519 -26.6648 -32.6884 0.9416 6.1805 17.3090 0.0362 16.3897 -23.5852 8.6596 -16.5836 -54.9054 0.0000 0.0000 0.0000 45.3173 12.6008 13.0450 -0.0021 0.2974 -0.8170 -2.9466 -9.2355 -36.6315 -0.0870 1.9023 -5.2358 6.6957 1.7913 8.6866 4.1302 3.6610 -8.0452 0.1144 1.2208 -13.6504 -2.5286 2.2419 -12.9693 -2.9647 1.8557 49.9634 -1.3447 -1.4117 24.0307 -0.0000 -0.0000 0.0000 -86.7841 5.2436 13.6919 9.8355 -16.4818 -1.4279 -0.0000 -0.0000 18.0039 30.9635 32.3149 17.7831 -7.1250 0.0000 -0.0000 -1.3505 66.3897 -0.6966 -0.0000 -0.0000 0.0000 68.2117 -10.8602 70.4683 -16.3447 25.9858 -3.7957 0.0000 -0.0000 -16.8185 -19.2248 -27.0347 9.0067 7.1250 -0.0000 -0.0000 12.2744 -57.9445 -3.9273
